# xmcd
#
# Track frame offsets:
#	150
#	12912
#	25175
#	36690
#	51144
#	67000
#	79315
#	91523
#	104467
#	118062
#	129743
#	141721
#	153527
#	166562
#
# Disc length: 2377 seconds
#
# Revision: 1
# Processed by: cddbd v1.5.2PL0 Copyright (c) Steve Scherf et al.
# Submitted via: audiograbber 1.83.01
#
DISCID=c109470e
DTITLE=Zillertal Power - Im Herz die Sonne
DYEAR=2010
DGENRE=
TTITLE0=Im Herz die Sonne
TTITLE1=A Juchza voller Schneid
TTITLE2=Sommer in Tirol
TTITLE3=Mit Stolz und Ehr
TTITLE4=Grenzenlose Liebe
TTITLE5=Du bist die Meine
TTITLE6=Für di würd i alles tun
TTITLE7=Buam aus den Bergen
TTITLE8=Hallo schönes Südtirol
TTITLE9=Schneidig Boarisch
TTITLE10=Bariton Spinner
TTITLE11=Kein Liebeslied im Mondenschein
TTITLE12=I will di spürn
TTITLE13=In Kookaburra West
EXTD=
EXTT0=
EXTT1=
EXTT2=
EXTT3=
EXTT4=
EXTT5=
EXTT6=
EXTT7=
EXTT8=
EXTT9=
EXTT10=
EXTT11=
EXTT12=
EXTT13=
PLAYORDER=
